<?xml version="1.0" ?><svg clip-rule="evenodd" fill-rule="evenodd" image-rendering="optimizeQuality" shape-rendering="geometricPrecision" text-rendering="geometricPrecision" viewBox="0 0 500 500" xmlns="http://www.w3.org/2000/svg"><path d="M460 400c0 6-5 10-10 10h-400c-5 0-10-4-10-10v-315c0-14 11-25 25-25h370c14 0 25 11 25 25v315zm-405-290h390v280c0 3-2 5-5 5h-380c-3 0-5-2-5-5v-280zm125 243l-94-40v-23l94-41v27l-65 25 65 26v26zm20 19l34-142h19l-34 142h-19zm73-18v-27l65-26-65-25v-27l94 41v23l-94 41z" fill="#434242"/></svg>